# Blender v2.74 (sub 0) OBJ File: 'armtop.blend'
# www.blender.org
mtllib armtop.mtl
o Cube
v 1.150000 -1.150000 -1.000000
v 1.150000 -1.150000 1.000000
v 1.150000 1.000000 -0.999999
v 1.149999 1.000000 1.000001
v 1.000000 -1.150000 1.150000
v -1.000000 -1.150000 1.150000
v 0.999999 1.000000 1.150001
v -1.000000 1.000000 1.150000
v -1.150000 -1.150000 1.000000
v -1.150000 -1.150000 -1.000000
v -1.150000 1.000000 1.000000
v -1.150000 1.000000 -1.000000
v 1.000000 -1.150000 -1.150000
v -1.000000 -1.150000 -1.150000
v 1.000000 1.000000 -1.149999
v -1.000000 1.000000 -1.150000
v 1.000000 1.150000 -0.999999
v 0.999999 1.150000 1.000001
v -1.000000 1.150000 1.000000
v -1.000000 1.150000 -1.000000
v -1.150000 -1.650000 0.866026
v -1.150000 -2.016025 0.500000
v -1.150000 -2.150000 0.000000
v -1.150000 -2.016026 -0.499999
v -1.150000 -1.650001 -0.866025
v 1.150000 -1.650000 0.866026
v 1.150000 -2.016025 0.500000
v 1.150000 -2.150000 0.000000
v 1.150000 -2.016026 -0.499999
v 1.150000 -1.650001 -0.866025
v 1.000000 -1.725000 0.995929
v 1.000000 -2.145929 0.575000
v 1.000000 -2.300000 0.000001
v 1.000000 -2.145930 -0.574999
v 1.000000 -1.725001 -0.995929
v -1.000000 -1.725000 0.995929
v -1.000000 -2.145929 0.575000
v -1.000000 -2.300000 0.000001
v -1.000000 -2.145930 -0.574999
v -1.000000 -1.725001 -0.995929
v -1.075000 1.075000 -1.000000
v -1.000000 1.075000 1.075000
v 1.000000 1.075000 -1.074999
v -1.000000 1.075000 -1.075000
v 1.075001 1.075000 -0.999999
v -1.075000 1.075000 1.000000
v 0.999999 1.075000 1.075001
v 1.074999 1.075000 1.000001
v -1.075000 1.000000 -1.075000
v -1.075000 1.000000 1.075000
v -1.075000 -1.150000 1.075000
v -1.075000 -1.150000 -1.075000
v -1.075000 -1.687500 0.930977
v -1.075000 -2.080977 0.537500
v -1.075000 -2.225000 0.000000
v -1.075000 -2.080978 -0.537499
v -1.075000 -1.687501 -0.930977
v 1.075000 -1.150000 -1.075000
v 1.075001 1.000000 -1.074999
v 1.074999 1.000000 1.075001
v 1.075000 -1.150000 1.075000
v 1.075000 -1.687501 -0.930977
v 1.075000 -2.080978 -0.537499
v 1.075000 -2.225000 0.000000
v 1.075000 -2.080977 0.537500
v 1.075000 -1.687500 0.930977
v 1.037499 1.075000 1.037501
v 1.037501 1.075000 -1.037499
v -1.037500 1.075000 -1.037500
v -1.037500 1.075000 1.037500
v -1.150000 -1.150000 -0.000000
v 1.150000 -1.150000 0.000000
v 1.150000 1.000000 0.000001
v -1.150000 1.000000 -0.000000
v -0.000000 -1.150000 1.150000
v 1.150000 -1.650000 0.000000
v 1.150000 -1.583013 -0.250000
v 0.000000 -1.150000 -1.150000
v -1.150000 -1.407500 -0.961003
v -1.150000 -1.853503 0.703503
v -1.150000 -2.111003 0.257500
v -1.150000 -2.111003 -0.257499
v -1.150000 -1.853503 -0.703503
v -1.150000 -1.407500 0.961003
v 1.150000 -1.853503 0.703503
v 1.150000 -2.111003 0.257500
v 1.150000 -2.111003 -0.257499
v 1.150000 -1.853503 -0.703503
v 1.150000 -1.407500 0.961003
v 1.150000 -1.407500 -0.961003
v 1.000000 -1.446125 1.105154
v 1.000000 -1.446126 -1.105153
v 1.000000 -1.959028 0.809029
v 1.000000 -2.255154 0.296125
v 1.000000 -2.255154 -0.296124
v 1.000000 -1.959029 -0.809028
v -1.000000 -1.959028 0.809029
v -1.000000 -2.255154 0.296125
v -1.000000 -2.255154 -0.296124
v -1.000000 -1.959029 -0.809028
v -1.000000 -1.446126 -1.105153
v -1.000000 -1.446125 1.105153
v -0.000000 -2.145930 -0.574999
v -0.000000 -2.300000 0.000001
v 0.000000 -1.725001 -0.995929
v -0.000000 -2.145929 0.575000
v 0.000000 -1.725000 0.995929
v 1.150000 -1.400000 -0.433013
v -1.075000 -1.426813 -1.033078
v -1.075000 -1.906266 -0.756265
v -1.075000 -2.183079 -0.276812
v -1.075000 -2.183078 0.276813
v -1.075000 -1.906266 0.756266
v -1.075000 -1.426812 1.033078
v 1.075000 -1.426812 1.033078
v 1.075000 -1.906266 0.756266
v 1.075000 -2.183078 0.276813
v 1.075000 -2.183079 -0.276812
v 1.075000 -1.906266 -0.756265
v 1.075000 -1.426813 -1.033078
v -1.150000 -1.150000 0.500000
v -1.150000 -1.150000 -0.500000
v 1.150000 -1.400000 0.433013
v 1.150000 -1.583013 0.250000
v -1.150000 -1.400000 0.433013
v -1.150000 -1.583013 0.250000
v -1.150000 -1.650000 0.000000
v -1.150000 -1.583013 -0.250000
v -1.150000 -1.400000 -0.433013
v 1.150000 -1.150000 -0.500000
v 1.150000 -1.150000 0.500000
v 0.000000 -1.446125 1.105154
v 0.000000 -1.959028 0.809029
v -0.000000 -2.255154 0.296125
v 0.000000 -1.446126 -1.105153
v 0.000000 -1.959029 -0.809028
v -0.000000 -2.255154 -0.296124
vt 0.581846 0.256631
vt 0.630547 0.358560
vt 0.533353 0.358618
vt 0.758339 0.359394
vt 0.758078 0.258458
vt 0.806912 0.258361
vt 0.534759 0.476536
vt 0.534723 0.384875
vt 0.629193 0.384867
vt 0.969961 0.363662
vt 0.869801 0.363657
vt 0.919876 0.358625
vt 0.748282 0.359575
vt 0.743325 0.358698
vt 0.744176 0.363675
vt 0.631408 0.363564
vt 0.532501 0.363581
vt 0.635534 0.359437
vt 0.634253 0.364371
vt 0.645458 0.364036
vt 0.694815 0.358730
vt 0.973079 0.358813
vt 0.969090 0.358616
vt 0.969085 0.258750
vt 0.870574 0.257930
vt 0.870663 0.358635
vt 0.867335 0.359521
vt 0.747052 0.359638
vt 0.743136 0.359205
vt 0.743273 0.258489
vt 0.632213 0.479434
vt 0.629763 0.481283
vt 0.629229 0.476528
vt 0.646169 0.256727
vt 0.646116 0.358698
vt 0.641159 0.358589
vt 0.806833 0.181717
vt 0.855648 0.181703
vt 0.855566 0.196224
vt 0.806851 0.210733
vt 0.855580 0.210686
vt 0.855594 0.225148
vt 0.806888 0.241786
vt 0.758107 0.241867
vt 0.758135 0.225276
vt 0.581767 0.181884
vt 0.533162 0.181895
vt 0.533060 0.167414
vt 0.533281 0.212394
vt 0.533264 0.196376
vt 0.581777 0.196355
vt 0.581809 0.227096
vt 0.630318 0.227061
vt 0.630385 0.242456
vt 0.970559 0.241480
vt 0.965809 0.241589
vt 0.962533 0.230447
vt 0.528121 0.225192
vt 0.528119 0.210818
vt 0.533281 0.210794
vt 0.528118 0.196444
vt 0.527973 0.182444
vt 0.860976 0.168208
vt 0.860851 0.182230
vt 0.860727 0.196252
vt 0.860758 0.210675
vt 0.630304 0.211860
vt 0.630291 0.196333
vt 0.635431 0.196391
vt 0.870621 0.257269
vt 0.873875 0.242148
vt 0.895130 0.257269
vt 0.694647 0.257262
vt 0.670476 0.256968
vt 0.673484 0.243006
vt 0.856849 0.364113
vt 0.757511 0.364426
vt 0.529866 0.477057
vt 0.534189 0.380120
vt 0.629727 0.380120
vt 0.634086 0.384346
vt 0.869074 0.240296
vt 0.873822 0.240401
vt 0.870574 0.252775
vt 0.855670 0.240675
vt 0.860883 0.240393
vt 0.860976 0.253625
vt 0.890957 0.207340
vt 0.884014 0.217683
vt 0.880482 0.216440
vt 0.919148 0.198433
vt 0.905053 0.202887
vt 0.903632 0.198994
vt 0.948627 0.207128
vt 0.933888 0.202781
vt 0.935310 0.198889
vt 0.860119 0.257778
vt 0.860096 0.359118
vt 0.855118 0.359131
vt 0.528401 0.359493
vt 0.528029 0.255884
vt 0.747694 0.240501
vt 0.743253 0.240316
vt 0.743272 0.253870
vt 0.635414 0.257254
vt 0.635534 0.358679
vt 0.757481 0.359394
vt 0.753929 0.359433
vt 0.753431 0.258636
vt 0.534225 0.481283
vt 0.531781 0.479427
vt 0.641371 0.359638
vt 0.641127 0.364464
vt 0.753335 0.360309
vt 0.531739 0.381969
vt 0.861738 0.359994
vt 0.861620 0.364450
vt 0.857045 0.364524
vt 0.866974 0.364418
vt 0.866915 0.359521
vt 0.974110 0.359501
vt 0.972800 0.364418
vt 0.529706 0.364335
vt 0.632171 0.381976
vt 0.736952 0.229314
vt 0.715799 0.243288
vt 0.725703 0.219963
vt 0.695007 0.204045
vt 0.694827 0.230653
vt 0.684907 0.207376
vt 0.919639 0.358625
vt 0.870621 0.358635
vt 0.714454 0.210611
vt 0.704550 0.233937
vt 0.704730 0.207328
vt 0.962192 0.226982
vt 0.965424 0.242125
vt 0.940915 0.242125
vt 0.948406 0.205116
vt 0.955299 0.216049
vt 0.934022 0.231192
vt 0.919521 0.197849
vt 0.933963 0.201482
vt 0.919580 0.227559
vt 0.891003 0.205134
vt 0.905262 0.201491
vt 0.905321 0.231202
vt 0.877130 0.227027
vt 0.884066 0.216081
vt 0.898384 0.242148
vt 0.646406 0.358840
vt 0.646151 0.257262
vt 0.670323 0.257262
vt 0.742988 0.257850
vt 0.718818 0.257556
vt 0.739970 0.243582
vt 0.674808 0.210707
vt 0.684727 0.233985
vt 0.663565 0.219729
vt 0.968657 0.358616
vt 0.944148 0.257269
vt 0.694916 0.358730
vt 0.694494 0.257262
vt 0.718666 0.257262
vt 0.652322 0.228750
vt 0.919639 0.257269
vt 0.968657 0.257269
vt 0.752836 0.253838
vt 0.752882 0.241941
vt 0.758107 0.242207
vt 0.641278 0.222420
vt 0.641075 0.233479
vt 0.646436 0.233345
vt 0.646507 0.224812
vt 0.646578 0.216279
vt 0.667753 0.211310
vt 0.641481 0.211360
vt 0.670303 0.216382
vt 0.694029 0.216485
vt 0.720635 0.211634
vt 0.694025 0.211260
vt 0.718672 0.216499
vt 0.743314 0.216513
vt 0.747500 0.226898
vt 0.747245 0.212008
vt 0.743274 0.229086
vt 0.743234 0.241659
vt 0.630385 0.242690
vt 0.635577 0.242420
vt 0.635661 0.256506
vt 0.630318 0.228366
vt 0.635493 0.228335
vt 0.528029 0.257428
vt 0.528075 0.241223
vt 0.533269 0.241480
vt 0.962533 0.227985
vt 0.955580 0.217557
vt 0.959116 0.216314
vt 0.951473 0.204646
vt 0.919147 0.193131
vt 0.888117 0.204857
vt 0.877071 0.228026
vt 0.872847 0.228024
vt 0.855594 0.227210
vt 0.860790 0.227161
vt 0.649314 0.242712
vt 0.646305 0.256673
vt 0.747755 0.226891
vt 0.743234 0.226762
vt 0.635462 0.211873
vt 0.635493 0.227355
vt 0.630372 0.181873
vt 0.630453 0.167414
vt 0.635677 0.168434
vt 0.635554 0.182413
vt 0.758018 0.181732
vt 0.758108 0.196285
vt 0.752937 0.196320
vt 0.752803 0.182264
vt 0.752669 0.168209
vt 0.758122 0.210780
vt 0.752927 0.225240
vt 0.752932 0.210780
vt 0.641023 0.242641
vt 0.646302 0.242675
vt 0.646436 0.230932
vt 0.646168 0.254417
vt 0.528121 0.225017
vt 0.860790 0.225099
vt 0.527829 0.168444
vt 0.969085 0.252731
vt 0.581827 0.242494
vt 0.630452 0.257851
vt 0.533269 0.242533
vt 0.581846 0.257892
vt 0.533299 0.227132
vt 0.581793 0.212366
vt 0.581809 0.228377
vt 0.630304 0.212337
vt 0.533299 0.228412
vt 0.581756 0.167414
vt 0.855670 0.241706
vt 0.806865 0.225212
vt 0.855746 0.258264
vt 0.806837 0.196254
vt 0.806829 0.167180
vt 0.855730 0.167183
vt 0.752927 0.230044
vt 0.630452 0.256590
vt 0.533239 0.256673
vt 0.855976 0.359131
vt 0.747916 0.364141
vt 0.646305 0.358763
vt 0.973329 0.258781
vt 0.866979 0.257973
vt 0.746869 0.258287
vt 0.634145 0.477067
vt 0.640970 0.256759
vt 0.966758 0.230444
vt 0.533299 0.225212
vt 0.529807 0.384336
vt 0.865300 0.252568
vt 0.855746 0.254140
vt 0.854888 0.258293
vt 0.533239 0.255921
vt 0.747632 0.254112
vt 0.630452 0.257270
vt 0.757220 0.258548
vt 0.753310 0.364656
vt 0.743426 0.358621
vt 0.742837 0.257262
vt 0.758078 0.254334
vt 0.747755 0.241787
vt 0.630452 0.257014
vt 0.533239 0.257924
vt 0.966758 0.227982
vt 0.630318 0.227387
vt 0.757928 0.167178
vt 0.641075 0.231067
vt 0.640970 0.254215
vt 0.533299 0.225037
vt 0.974360 0.252515
vt 0.630318 0.228341
vt 0.758135 0.230080
vn -0.000000 -0.000000 1.000000
vn 0.000000 0.000000 -1.000000
vn 0.000000 1.000000 0.000000
vn -0.707100 0.707100 -0.000000
vn 0.577400 0.577400 0.577400
vn -0.000000 0.707100 0.707100
vn 0.577300 0.577400 0.577400
vn 0.707100 0.707100 0.000000
vn -0.707100 -0.000000 0.707100
vn -0.707100 0.000000 -0.707100
vn 0.707100 0.000000 -0.707100
vn 0.577400 0.577400 -0.577400
vn 0.707100 0.000000 0.707100
vn 0.000000 -0.931100 -0.364700
vn 0.000000 -0.624000 -0.781400
vn 0.000000 -0.364700 -0.931100
vn 0.000000 -0.988700 0.149700
vn 0.000000 -0.781400 0.624000
vn 0.000000 -0.364700 0.931100
vn -0.703100 -0.259300 0.662100
vn -0.703100 -0.443800 0.555700
vn -0.703100 -0.662100 0.259300
vn -0.703100 -0.703100 -0.106500
vn -0.703100 -0.555700 -0.443800
vn 0.703100 -0.555700 0.443800
vn -1.000000 0.000000 -0.000000
vn 1.000000 -0.000000 0.000000
vn 0.000000 0.707100 -0.707100
vn -0.703100 -0.106500 -0.703100
vn 0.703100 -0.106500 0.703100
vn -0.577400 0.577400 -0.577300
vn 0.577300 0.577400 -0.577400
vn -0.577300 0.577400 0.577300
vn -0.577400 0.577300 -0.577400
vn -0.577400 0.577400 -0.577400
vn -0.577400 0.577300 0.577300
vn -0.577300 0.577300 0.577400
vn 0.703100 -0.106500 -0.703100
vn 0.703100 -0.443800 -0.555700
vn 0.703100 -0.555700 -0.443800
vn 0.703100 -0.662100 -0.259300
vn 0.703100 -0.703100 -0.106500
vn 0.703100 -0.703100 0.106500
vn 0.703100 -0.662100 0.259300
vn 0.703100 -0.443800 0.555700
vn 0.703100 -0.259300 0.662100
vn -0.703100 -0.106500 0.703100
vn -0.703100 -0.555700 0.443800
vn -0.703100 -0.703100 0.106500
vn -0.703100 -0.662100 -0.259300
vn -0.703100 -0.443800 -0.555700
vn -0.703100 -0.259300 -0.662100
vn 0.703100 -0.259300 -0.662100
vn 0.000000 -0.149700 0.988700
vn 0.000000 -0.624000 0.781400
vn 0.000000 -0.931100 0.364700
vn 0.000000 -0.149700 -0.988700
vn 0.000000 -0.781400 -0.624000
vn 0.000000 -0.988700 -0.149700
vn 0.577300 0.577300 0.577400
vn 0.577300 0.577400 -0.577300
vn 0.577400 0.577300 -0.577400
vn 0.577400 0.577400 -0.577300
vn -0.577300 0.577400 -0.577400
vn -0.577400 0.577300 0.577400
vn 0.577400 0.577400 0.577300
vn -0.703100 -0.443800 -0.555600
vn -0.703100 -0.555600 0.443800
usemtl None
s off
f 75/1/1 7/2/1 8/3/1
f 15/4/2 13/5/2 78/6/2
f 20/7/3 19/8/3 18/9/3
f 46/10/4 41/11/4 74/12/4
f 60/13/5 4/14/5 48/15/5
f 47/16/6 42/17/6 8/3/6
f 60/18/7 67/19/7 47/16/7
f 45/20/8 48/15/8 73/21/8
f 50/22/9 11/23/9 9/24/9
f 10/25/10 12/26/10 49/27/10
f 59/28/11 3/29/11 1/30/11
f 68/31/12 43/32/12 17/33/12
f 2/34/13 4/35/13 60/36/13
f 137/37/14 99/38/14 39/39/14
f 136/40/15 100/41/15 40/42/15
f 135/43/16 92/44/16 35/45/16
f 134/46/17 98/47/17 38/48/17
f 97/49/18 37/50/18 106/51/18
f 107/52/19 31/53/19 91/54/19
f 114/55/20 84/56/20 21/57/20
f 53/58/21 113/59/21 97/60/21
f 54/61/22 112/62/22 98/47/22
f 55/63/23 111/64/23 99/38/23
f 56/65/24 110/66/24 100/41/24
f 93/67/25 32/68/25 65/69/25
f 10/70/26 79/71/26 122/72/26
f 72/73/27 131/74/27 123/75/27
f 20/7/28 17/33/28 43/32/28
f 44/76/28 43/77/28 15/4/28
f 19/8/4 20/7/4 41/78/4
f 19/8/6 42/79/6 47/80/6
f 17/33/8 18/9/8 48/81/8
f 109/82/29 79/83/29 10/84/29
f 101/85/29 109/86/29 52/87/29
f 24/88/24 83/89/24 110/90/24
f 23/91/23 82/92/23 111/93/23
f 22/94/22 81/95/22 112/96/22
f 52/97/10 49/98/10 16/99/10
f 8/3/9 50/100/9 51/101/9
f 115/102/30 89/103/30 2/104/30
f 61/105/13 60/106/13 7/2/13
f 15/107/11 59/108/11 58/109/11
f 20/7/31 44/110/31 69/111/31
f 59/112/32 68/113/32 45/20/32
f 59/114/12 15/4/12 43/77/12
f 70/115/33 42/79/33 19/8/33
f 49/116/34 69/117/34 44/118/34
f 41/11/35 69/119/35 49/120/35
f 50/121/36 70/122/36 46/10/36
f 42/17/37 70/123/37 50/100/37
f 18/9/7 47/80/7 67/124/7
f 30/125/27 108/126/27 88/127/27
f 28/128/27 76/129/27 86/130/27
f 74/131/26 12/132/26 122/72/26
f 29/133/27 77/134/27 87/135/27
f 21/136/26 84/137/26 125/138/26
f 22/139/26 80/140/26 126/141/26
f 23/142/26 81/143/26 127/144/26
f 24/145/26 82/146/26 128/147/26
f 25/148/26 83/149/26 129/150/26
f 4/151/27 2/152/27 131/153/27
f 1/154/27 130/155/27 90/156/27
f 27/157/27 124/158/27 85/159/27
f 11/160/26 74/131/26 121/161/26
f 73/162/27 72/163/27 130/164/27
f 85/159/27 123/75/27 26/165/27
f 85/159/27 124/158/27 123/75/27
f 124/158/27 72/73/27 123/75/27
f 90/156/27 108/126/27 30/125/27
f 90/156/27 130/155/27 108/126/27
f 130/155/27 72/73/27 108/126/27
f 129/150/26 128/147/26 71/166/26
f 129/150/26 83/149/26 128/147/26
f 83/149/26 24/145/26 128/147/26
f 128/147/26 127/144/26 71/166/26
f 128/147/26 82/146/26 127/144/26
f 82/146/26 23/142/26 127/144/26
f 127/144/26 126/141/26 71/166/26
f 127/144/26 81/143/26 126/141/26
f 81/143/26 22/139/26 126/141/26
f 126/141/26 125/138/26 71/166/26
f 126/141/26 80/140/26 125/138/26
f 80/140/26 21/136/26 125/138/26
f 125/138/26 121/161/26 71/166/26
f 125/138/26 84/137/26 121/161/26
f 84/137/26 9/167/26 121/161/26
f 87/135/27 76/129/27 28/128/27
f 87/135/27 77/134/27 76/129/27
f 77/134/27 72/73/27 76/129/27
f 86/130/27 124/158/27 27/157/27
f 86/130/27 76/129/27 124/158/27
f 76/129/27 72/73/27 124/158/27
f 88/127/27 77/134/27 29/133/27
f 88/127/27 108/126/27 77/134/27
f 108/126/27 72/73/27 77/134/27
f 58/168/38 120/169/38 92/170/38
f 119/171/39 62/172/39 30/173/39
f 119/171/40 88/174/40 29/175/40
f 118/176/41 63/177/41 29/175/41
f 118/176/42 87/178/42 28/179/42
f 117/180/43 64/181/43 28/179/43
f 117/180/44 86/182/44 27/183/44
f 116/184/25 65/185/25 27/183/25
f 116/184/45 85/186/45 26/187/45
f 91/188/30 115/189/30 61/190/30
f 91/188/46 31/191/46 66/192/46
f 51/193/47 114/194/47 102/195/47
f 21/196/21 80/197/21 113/198/21
f 22/94/48 54/199/48 113/198/48
f 23/91/49 55/200/49 112/96/49
f 24/88/50 56/201/50 111/93/50
f 25/202/51 57/203/51 110/90/51
f 101/85/52 40/204/52 57/205/52
f 123/75/27 89/206/27 26/165/27
f 123/75/27 131/74/27 89/206/27
f 131/74/27 2/207/27 89/206/27
f 122/72/26 129/150/26 71/166/26
f 122/72/26 79/71/26 129/150/26
f 79/71/26 25/148/26 129/150/26
f 115/102/46 66/208/46 26/209/46
f 93/67/45 116/210/45 66/211/45
f 94/212/43 33/213/43 64/214/43
f 94/212/44 117/215/44 65/69/44
f 95/216/41 34/217/41 63/218/41
f 95/216/42 118/219/42 64/220/42
f 96/221/39 35/45/39 62/222/39
f 96/221/40 119/223/40 63/218/40
f 120/224/53 90/225/53 30/226/53
f 1/227/38 90/225/38 120/224/38
f 102/195/20 114/194/20 53/228/20
f 109/82/52 57/203/52 25/202/52
f 57/229/51 40/42/51 100/41/51
f 56/65/50 39/39/50 99/38/50
f 55/230/49 38/48/49 98/47/49
f 54/61/48 37/50/48 97/60/48
f 9/231/47 84/56/47 114/55/47
f 132/232/54 91/54/54 5/233/54
f 102/234/54 132/232/54 75/235/54
f 36/236/19 107/52/19 132/232/19
f 133/237/18 106/51/18 32/68/18
f 107/238/55 133/237/55 93/239/55
f 36/240/55 97/49/55 133/237/55
f 134/46/17 104/241/17 33/213/17
f 106/51/56 134/46/56 94/212/56
f 37/50/56 98/47/56 134/46/56
f 101/242/16 135/43/16 105/243/16
f 14/244/57 78/6/57 135/43/57
f 78/6/57 13/5/57 92/44/57
f 136/40/15 105/243/15 35/45/15
f 34/217/58 103/245/58 136/40/58
f 39/39/58 100/41/58 136/40/58
f 137/37/14 103/245/14 34/217/14
f 104/246/59 137/37/59 95/216/59
f 38/247/59 99/38/59 137/37/59
f 92/170/53 120/169/53 62/248/53
f 7/2/1 75/1/1 5/249/1
f 75/1/1 8/3/1 6/250/1
f 78/6/2 16/251/2 15/4/2
f 16/251/2 78/6/2 14/244/2
f 17/33/3 20/7/3 18/9/3
f 74/12/4 11/23/4 46/10/4
f 41/11/4 12/26/4 74/12/4
f 67/252/60 60/13/60 48/15/60
f 7/2/6 47/16/6 8/3/6
f 7/2/5 60/18/5 47/16/5
f 73/21/8 3/253/8 45/20/8
f 48/15/8 4/14/8 73/21/8
f 51/254/9 50/22/9 9/24/9
f 52/255/10 10/25/10 49/27/10
f 58/256/11 59/28/11 1/30/11
f 45/257/61 68/31/61 17/33/61
f 61/258/13 2/34/13 60/36/13
f 103/245/14 137/37/14 39/39/14
f 105/243/15 136/40/15 40/42/15
f 105/243/16 135/43/16 35/45/16
f 104/241/17 134/46/17 38/48/17
f 133/237/18 97/49/18 106/51/18
f 132/232/19 107/52/19 91/54/19
f 53/259/20 114/55/20 21/57/20
f 36/260/21 53/58/21 97/60/21
f 37/50/22 54/61/22 98/47/22
f 38/247/23 55/63/23 99/38/23
f 39/39/24 56/65/24 100/41/24
f 116/210/25 93/67/25 65/69/25
f 44/110/28 20/7/28 43/32/28
f 16/251/28 44/76/28 15/4/28
f 46/261/4 19/8/4 41/78/4
f 18/9/6 19/8/6 47/80/6
f 45/257/8 17/33/8 48/81/8
f 52/262/29 109/82/29 10/84/29
f 14/263/29 101/85/29 52/87/29
f 56/201/24 24/88/24 110/90/24
f 55/200/23 23/91/23 111/93/23
f 54/199/22 22/94/22 112/96/22
f 14/264/10 52/97/10 16/99/10
f 6/265/9 8/3/9 51/101/9
f 61/266/30 115/102/30 2/104/30
f 5/267/13 61/105/13 7/2/13
f 13/268/11 15/107/11 58/109/11
f 41/78/31 20/7/31 69/111/31
f 3/253/62 59/112/62 45/20/62
f 68/269/63 59/114/63 43/77/63
f 46/261/36 70/115/36 19/8/36
f 16/251/64 49/116/64 44/118/64
f 12/26/35 41/11/35 49/120/35
f 11/23/65 50/121/65 46/10/65
f 8/3/36 42/17/36 50/100/36
f 48/81/66 18/9/66 67/124/66
f 122/72/26 71/166/26 74/131/26
f 12/132/26 10/70/26 122/72/26
f 131/153/27 73/162/27 4/151/27
f 73/162/27 131/153/27 72/163/27
f 121/161/26 9/167/26 11/160/26
f 74/131/26 71/166/26 121/161/26
f 130/164/27 3/270/27 73/162/27
f 3/270/27 130/164/27 1/271/27
f 13/272/38 58/168/38 92/170/38
f 88/174/39 119/171/39 30/173/39
f 63/177/40 119/171/40 29/175/40
f 87/178/41 118/176/41 29/175/41
f 64/181/42 118/176/42 28/179/42
f 86/182/43 117/180/43 28/179/43
f 65/185/44 117/180/44 27/183/44
f 85/186/25 116/184/25 27/183/25
f 66/273/45 116/184/45 26/187/45
f 5/274/30 91/188/30 61/190/30
f 115/189/46 91/188/46 66/192/46
f 6/275/47 51/193/47 102/195/47
f 53/276/21 21/196/21 113/198/21
f 80/197/48 22/94/48 113/198/48
f 81/95/49 23/91/49 112/96/49
f 82/92/50 24/88/50 111/93/50
f 83/89/51 25/202/51 110/90/51
f 109/86/52 101/85/52 57/205/52
f 89/103/46 115/102/46 26/209/46
f 31/277/45 93/67/45 66/211/45
f 117/215/43 94/212/43 64/214/43
f 32/68/44 94/212/44 65/69/44
f 118/219/41 95/216/41 63/218/41
f 33/278/42 95/216/42 64/220/42
f 119/223/39 96/221/39 62/222/39
f 34/217/40 96/221/40 63/218/40
f 62/279/53 120/224/53 30/226/53
f 58/280/38 1/227/38 120/224/38
f 36/281/20 102/195/20 53/228/20
f 79/83/52 109/82/52 25/202/52
f 110/66/67 57/229/67 100/41/67
f 111/64/50 56/65/50 99/38/50
f 112/62/49 55/230/49 98/47/49
f 113/59/68 54/61/68 97/60/68
f 51/282/47 9/231/47 114/55/47
f 75/235/54 132/232/54 5/233/54
f 6/275/54 102/234/54 75/235/54
f 102/234/19 36/236/19 132/232/19
f 93/239/18 133/237/18 32/68/18
f 31/283/55 107/238/55 93/239/55
f 107/238/55 36/240/55 133/237/55
f 94/212/17 134/46/17 33/213/17
f 32/68/56 106/51/56 94/212/56
f 106/51/56 37/50/56 134/46/56
f 40/42/16 101/242/16 105/243/16
f 101/242/57 14/244/57 135/43/57
f 135/43/57 78/6/57 92/44/57
f 96/221/15 136/40/15 35/45/15
f 96/221/58 34/217/58 136/40/58
f 103/245/58 39/39/58 136/40/58
f 95/216/14 137/37/14 34/217/14
f 33/278/59 104/246/59 95/216/59
f 104/246/59 38/247/59 137/37/59
f 35/284/53 92/170/53 62/248/53
