# Blender v2.74 (sub 0) OBJ File: 'sword.blend'
# www.blender.org
mtllib sword.mtl
o Circle
v -0.216506 2.487210 0.125000
v 0.000000 2.487210 0.250000
v 0.216506 2.487210 0.125000
v 0.216506 2.487210 -0.125000
v 0.000000 2.487210 -0.250000
v -0.216506 2.487210 -0.125000
v -0.700000 2.487210 0.250000
v -0.700000 2.487210 -0.250000
v 0.700000 2.487210 0.250000
v 0.700000 2.487210 -0.250000
v -0.870020 2.857315 0.310722
v -0.870020 2.857315 -0.310722
v 0.870021 2.857315 -0.310722
v 0.870020 2.857315 0.310722
v 0.000000 2.857315 -0.230722
v 0.000000 2.857315 0.240722
v -0.500000 2.857315 -0.009278
v 0.500000 2.857315 -0.009278
v 0.000000 7.727190 -0.230722
v 0.000000 7.727190 0.240722
v -0.500000 7.727190 -0.009278
v 0.500000 7.727190 -0.009278
v -0.000000 8.763248 -0.009278
v 0.000000 1.367966 -0.250000
v 0.000000 1.367966 0.250000
v 0.216506 1.367966 -0.125000
v -0.216506 1.367966 -0.125000
v -0.216506 1.367966 0.125000
v 0.216506 1.367966 0.125000
v 0.000000 1.330386 -0.282657
v 0.000000 1.330386 0.282657
v 0.244788 1.330386 -0.141328
v -0.244788 1.330386 -0.141329
v -0.244788 1.330386 0.141329
v 0.244788 1.330386 0.141329
v 0.000000 1.247913 -0.282750
v 0.000000 1.247913 0.282750
v 0.244869 1.247913 -0.141375
v -0.244869 1.247913 -0.141375
v -0.244869 1.247913 0.141375
v 0.244869 1.247913 0.141375
v 0.000000 1.201064 0.186497
v 0.000000 1.064538 0.323022
v 0.000000 0.968339 0.372994
v 0.000000 0.889943 0.323022
v 0.000000 0.821612 0.186497
v -0.000000 0.784350 0.096538
v -0.161511 1.201064 0.093249
v -0.279745 1.064538 0.161511
v -0.323022 0.968339 0.186497
v -0.279745 0.889943 0.161511
v -0.161511 0.821612 0.093249
v -0.083604 0.784350 0.048269
v -0.161511 1.201064 -0.093248
v -0.279745 1.064538 -0.161511
v -0.323022 0.968339 -0.186497
v -0.279745 0.889943 -0.161511
v -0.161511 0.821612 -0.093248
v -0.083604 0.784350 -0.048269
v -0.000000 1.201064 -0.186497
v -0.000000 1.064538 -0.323022
v 0.000000 0.968339 -0.372993
v -0.000000 0.889943 -0.323022
v 0.000000 0.821612 -0.186497
v -0.000000 0.784350 -0.096538
v 0.161511 1.201064 -0.093248
v 0.279745 1.064538 -0.161511
v 0.323022 0.968339 -0.186497
v 0.279745 0.889943 -0.161511
v 0.161511 0.821612 -0.093248
v 0.083604 0.784350 -0.048269
v 0.161511 1.201064 0.093249
v 0.279745 1.064538 0.161511
v 0.323022 0.968339 0.186497
v 0.279745 0.889943 0.161511
v 0.161511 0.821612 0.093249
v 0.083604 0.784350 0.048269
v 0.000000 2.857315 0.310722
v 0.000000 2.857315 -0.310722
vt 0.294225 0.269839
vt 0.294512 0.264483
vt 0.282696 0.667271
vt 0.282696 0.739478
vt 0.296351 0.242332
vt 0.296270 0.246165
vt 0.292886 0.262467
vt 0.290905 0.264033
vt 0.231752 0.662746
vt 0.259400 0.640460
vt 0.292994 0.241416
vt 0.294850 0.240581
vt 0.290256 0.269365
vt 0.291887 0.273856
vt 0.240907 0.849212
vt 0.219057 0.733828
vt 0.292362 0.246068
vt 0.000000 0.000000
vt 0.116466 0.633956
vt 0.793657 0.236961
vt 0.611036 0.377650
vt 0.702364 0.236961
vt 0.702364 0.374371
vt 0.702364 0.511781
vt 0.611036 0.488207
vt 1.000000 0.010278
vt 1.000000 0.094906
vt 0.915557 0.105184
vt 0.915557 0.000000
vt 0.611036 0.267092
vt 1.000000 0.115462
vt 1.000000 0.200090
vt 0.915557 0.210368
vt 0.702364 0.377169
vt 0.702364 0.267128
vt 0.702364 0.487210
vt 0.793657 0.510497
vt 0.090284 0.631913
vt 0.793657 0.373729
vt 0.056633 0.877466
vt 0.089589 0.999925
vt 0.000075 0.894616
vt 0.096875 0.879261
vt 0.218906 0.000075
vt 0.138804 0.638973
vt 0.218906 0.911808
vt 0.145004 0.881375
vt 0.294048 0.249699
vt 0.295385 0.218686
vt 0.294889 0.222588
vt 0.297917 0.222606
vt 0.297965 0.219701
vt 0.296249 0.224981
vt 0.296752 0.219041
vt 0.299847 0.192597
vt 0.299765 0.194394
vt 0.298847 0.195509
vt 0.298083 0.194551
vt 0.298160 0.193388
vt 0.304358 0.134214
vt 0.304567 0.135049
vt 0.307035 0.105561
vt 0.306373 0.108499
vt 0.299143 0.191121
vt 0.302292 0.162665
vt 0.302178 0.161539
vt 0.301868 0.163263
vt 0.304370 0.135238
vt 0.306941 0.107317
vt 0.309828 0.072197
vt 0.309597 0.077688
vt 0.312577 0.044067
vt 0.312378 0.042568
vt 0.303948 0.134955
vt 0.306529 0.107163
vt 0.301303 0.162831
vt 0.309509 0.076029
vt 0.312288 0.043907
vt 0.303869 0.134342
vt 0.306432 0.106704
vt 0.301267 0.161980
vt 0.309348 0.075602
vt 0.312141 0.043638
vt 0.304087 0.133785
vt 0.306593 0.106455
vt 0.301623 0.160904
vt 0.309256 0.075198
vt 0.312094 0.043328
vt 0.309222 0.074583
vt 0.312186 0.042939
vn -0.500000 0.000000 0.866000
vn -0.399500 0.601300 0.692000
vn 1.000000 0.000000 0.000000
vn 0.799000 0.601300 0.000000
vn -0.500000 0.000000 -0.866000
vn 0.399500 0.601300 -0.692000
vn 0.000000 1.000000 0.000000
vn -0.000000 -0.161900 -0.986800
vn -0.908700 -0.417400 -0.000000
vn 0.908700 -0.417400 0.000000
vn 0.000000 -0.161900 0.986800
vn -0.397400 0.191800 -0.897400
vn -0.447200 0.000000 0.894400
vn -0.404900 0.000000 -0.914300
vn 0.404900 0.000000 -0.914300
vn 0.447200 0.000000 0.894400
vn -0.437100 0.211000 0.874300
vn 0.397400 0.191800 -0.897400
vn 0.437100 0.211000 0.874300
vn -0.799000 0.601300 -0.000000
vn 0.399500 0.601300 0.692000
vn 0.500000 0.001000 -0.866000
vn -0.399500 0.601300 -0.692000
vn -1.000000 0.000000 -0.000000
vn 0.500000 0.000000 0.866000
vn -0.500000 0.001000 0.866000
vn -1.000000 0.001000 -0.000000
vn 1.000000 0.001000 0.000000
vn -0.245000 -0.871700 0.424300
vn -0.500000 0.001000 -0.866000
vn 0.500000 0.001000 0.866000
vn -0.245000 -0.871800 -0.424300
vn -0.490000 -0.871700 -0.000000
vn 0.245000 -0.871800 -0.424300
vn -0.437700 -0.483300 0.758200
vn 0.245000 -0.871700 0.424300
vn 0.490000 -0.871700 0.000000
vn -0.378000 0.654700 0.654700
vn -0.912000 0.410300 0.000000
vn -0.875500 -0.483300 0.000000
vn -0.215700 -0.902100 0.373700
vn -0.250200 -0.865800 0.433300
vn -0.437700 -0.483300 -0.758200
vn -0.456000 0.410300 -0.789800
vn -0.431500 -0.902100 0.000000
vn -0.500400 -0.865800 -0.000000
vn -0.755900 0.654700 0.000000
vn 0.437700 -0.483300 -0.758200
vn 0.456000 0.410300 -0.789800
vn -0.215700 -0.902100 -0.373700
vn -0.250200 -0.865800 -0.433300
vn -0.378000 0.654700 -0.654700
vn 0.875500 -0.483300 0.000000
vn 0.912000 0.410300 0.000000
vn 0.215700 -0.902100 -0.373700
vn 0.250200 -0.865800 -0.433300
vn 0.378000 0.654700 -0.654700
vn 0.437700 -0.483300 0.758200
vn 0.456000 0.410300 0.789800
vn 0.431500 -0.902100 -0.000000
vn 0.500400 -0.865800 -0.000000
vn 0.755900 0.654700 0.000000
vn 0.215700 -0.902100 0.373700
vn 0.250200 -0.865800 0.433300
vn 0.378000 0.654700 0.654700
vn 0.000000 -1.000000 0.000000
vn 0.500000 0.000000 -0.866000
vn -0.456000 0.410300 0.789800
usemtl (null)
s off
f 28/1/1 25/2/1 2/3/1 1/4/1
f 31/5/2 25/2/2 28/1/2 34/6/2
f 29/7/3 26/8/3 4/9/3 3/10/3
f 32/11/4 26/8/4 29/7/4 35/12/4
f 24/13/5 27/14/5 6/15/5 5/16/5
f 30/17/6 24/13/6 26/8/6 32/11/6
f 14/18/7 18/19/7 16/18/7 78/20/7
f 5/21/8 12/22/8 79/23/8 13/24/8
f 10/25/8 5/21/8 13/24/8
f 8/26/9 7/27/9 11/28/9 12/29/9
f 5/21/8 8/30/8 12/22/8
f 9/31/10 10/32/10 13/33/10 14/28/10
f 2/34/11 9/35/11 14/20/11
f 7/36/11 2/34/11 11/37/11
f 16/18/7 17/38/7 11/18/7 78/39/7
f 21/40/12 23/41/12 19/42/12
f 17/38/13 16/19/13 20/43/13 21/40/13
f 15/44/14 17/38/14 21/40/14 19/42/14
f 18/45/15 15/44/15 19/46/15 22/47/15
f 16/19/16 18/45/16 22/47/16 20/43/16
f 21/40/17 20/43/17 23/41/17
f 19/46/18 23/41/18 22/47/18
f 22/47/19 23/41/19 20/43/19
f 33/48/20 34/6/20 28/1/20 27/14/20
f 31/5/21 35/12/21 29/7/21 25/2/21
f 38/49/22 36/50/22 30/17/22 32/11/22
f 33/48/23 27/14/23 24/13/23 30/17/23
f 28/1/24 1/4/24 6/15/24 27/14/24
f 29/7/25 3/10/25 2/3/25 25/2/25
f 40/51/26 37/52/26 31/5/26 34/6/26
f 40/51/27 34/6/27 33/48/27 39/53/27
f 41/54/28 38/49/28 32/11/28 35/12/28
f 42/55/29 37/52/29 40/51/29 48/56/29
f 36/50/30 39/53/30 33/48/30 30/17/30
f 41/54/31 35/12/31 31/5/31 37/52/31
f 54/57/32 39/53/32 36/50/32 60/58/32
f 48/56/33 40/51/33 39/53/33 54/57/33
f 38/49/34 66/59/34 60/58/34 36/50/34
f 44/60/35 50/61/35 51/62/35 45/63/35
f 72/64/36 41/54/36 37/52/36 42/55/36
f 41/54/37 72/64/37 66/59/37 38/49/37
f 48/56/38 49/65/38 43/66/38 42/55/38
f 49/65/39 55/67/39 56/68/39 50/61/39
f 56/68/40 57/69/40 51/62/40 50/61/40
f 46/70/41 52/71/41 53/72/41 47/73/41
f 51/62/42 52/71/42 46/70/42 45/63/42
f 62/74/43 63/75/43 57/69/43 56/68/43
f 55/67/44 61/76/44 62/74/44 56/68/44
f 52/71/45 58/77/45 59/78/45 53/72/45
f 51/62/46 57/69/46 58/77/46 52/71/46
f 54/57/47 55/67/47 49/65/47 48/56/47
f 68/79/48 69/80/48 63/75/48 62/74/48
f 61/76/49 67/81/49 68/79/49 62/74/49
f 58/77/50 64/82/50 65/83/50 59/78/50
f 57/69/51 63/75/51 64/82/51 58/77/51
f 60/58/52 61/76/52 55/67/52 54/57/52
f 74/84/53 75/85/53 69/80/53 68/79/53
f 67/81/54 73/86/54 74/84/54 68/79/54
f 64/82/55 70/87/55 71/88/55 65/83/55
f 63/75/56 69/80/56 70/87/56 64/82/56
f 66/59/57 67/81/57 61/76/57 60/58/57
f 44/60/58 45/63/58 75/85/58 74/84/58
f 73/86/59 43/66/59 44/60/59 74/84/59
f 70/87/60 76/89/60 77/90/60 71/88/60
f 69/80/61 75/85/61 76/89/61 70/87/61
f 72/64/62 73/86/62 67/81/62 66/59/62
f 76/89/63 46/70/63 47/73/63 77/90/63
f 75/85/64 45/63/64 46/70/64 76/89/64
f 42/55/65 43/66/65 73/86/65 72/64/65
f 53/78/66 59/83/66 65/88/66 71/90/66 77/73/66 47/72/66
f 26/8/67 24/13/67 5/16/67 4/9/67
f 43/66/68 49/65/68 50/61/68 44/60/68
f 11/37/11 2/34/11 14/20/11 78/39/11
f 11/38/7 17/18/7 12/28/7
f 12/18/7 17/44/7 15/18/7 79/22/7
f 15/18/7 18/45/7 13/18/7 79/23/7
f 13/45/7 18/18/7 14/33/7
f 2/34/66 3/10/66 9/18/66
f 5/25/66 10/18/66 4/16/66
f 4/18/66 10/31/66 9/10/66 3/9/66
f 5/21/66 6/15/66 8/18/66
f 2/36/66 7/18/66 1/3/66
f 1/18/66 7/26/66 8/15/66 6/4/66
